<?xml version="1.0" encoding="utf-8" ?>
<svg xmlns="http://www.w3.org/2000/svg" xmlns:xlink="http://www.w3.org/1999/xlink" width="1024" height="1024">
	<path fill="white" transform="scale(2 2)" d="M226.101 258.839C235.625 249.723 245.842 242.051 256.859 234.81C273.691 223.747 291.942 214.396 303.286 197.076C317.971 174.657 316.96 142.175 295.357 124.397C269.321 102.972 230.024 116.918 213.3 143.251C201.632 161.622 204.482 185.623 195.359 196.649C178.785 216.681 151.538 203.991 135.372 190.197C119.153 176.358 117.642 167.804 120.759 148.764C130.018 92.19 174.746 51.5792 230.44 41.0257C238.155 39.5638 246.003 39.0744 253.822 38.5004C363.44 34.0928 435.298 156.911 366.184 248.411C357.212 260.289 346.132 271.003 334.622 280.398C309.884 300.593 284.432 316.666 279.232 351.757C278.13 359.197 279.435 361.798 273.904 367.851C259.233 383.905 213.865 367.953 201.242 356.057C189.496 344.988 194.716 323.274 198.563 309.605C204.369 288.974 211.156 274.513 226.101 258.839ZM342.428 88.8912C331.024 69.2849 309.623 58.8563 288.321 53.1921C213.622 33.3293 144.701 73.8389 132.031 151.502C131.646 153.858 131.45 156.248 131.056 158.596C135.977 164.4 141.077 168.651 147.506 172.709C152.769 177.509 163.22 179.446 167.699 172.649C170.222 168.82 171.109 161.192 172.671 156.505C179.285 136.662 190.366 115.439 207.622 103.171C220.046 94.3383 238.639 88.8832 249.048 103.61C261.741 97.3751 285.845 103.633 297.236 110.147C300.184 112.479 303.274 114.643 306.044 117.19C330.926 140.066 331.057 181.344 310.628 207.168C296.977 224.422 276.908 233.126 258.712 244.401C230.337 261.985 210.046 282.201 205.375 316.673C204.122 325.913 204.721 334.921 204.373 344.14L204.611 344.291C209.838 347.651 214.348 351.185 220.21 353.67C226.242 356.307 232.88 357.386 238.79 360.15C243.446 330 257.982 305.95 280.094 285.393C299.572 267.286 323.289 253.5 339.996 232.514C368.935 196.16 367.627 145.745 350.53 104.567C348.385 99.3988 345.853 93.3182 342.428 88.8912ZM238.011 103.61C228.386 98.9826 218.455 104.927 210.77 110.686C196.54 121.35 185.365 140.466 180.588 157.695C173.587 174.79 176.317 185.891 153.538 184.231C146.389 181.607 143.407 179.258 137.363 175.549L137.135 175.411C146.134 185.255 168.075 200.956 182.115 192.294C191.117 186.74 189.669 174.889 191.867 165.731C193.159 141.494 218.5 113.114 240.655 105.481C239.825 104.756 238.942 104.191 238.011 103.61ZM355.093 96.2471C357.452 103.57 361.056 110.443 362.795 117.999C368.092 133.548 368.242 145.608 370.069 161.006C371.871 160.524 373.694 159.949 375.52 159.58C377.365 159.276 379.08 159.363 380.922 159.58C377.481 132.789 370.961 118.136 355.093 96.2471ZM375.52 168.995C373.69 168.357 371.949 167.435 370.069 166.971C368.605 184.282 367.416 195.209 361.26 211.706C359.47 216.503 356.737 220.866 355.093 225.71C354.301 226.412 343.513 241.754 341.515 244.354C333.273 254.295 322.325 261.634 312.607 270.01C306.254 274.009 294.167 282.832 288.769 288.381C285.301 290.992 281.604 294.166 279.109 297.743C274.082 302.695 268.97 308.101 265.407 314.247C255.465 324.4 249.138 348.025 246.074 361.281L250.238 361.281C252.901 361.299 255.567 361.348 258.229 361.281C259.739 361.227 261.257 361.27 262.769 361.281C264.083 360.934 265.39 360.528 266.697 360.15C262.618 340.609 283.709 306.51 297.124 294.018C305.576 286.149 315.137 279.83 323.73 272.161C336.756 264.856 358.316 237.986 365.725 225.71C368.291 221.439 370.207 217.079 372.112 212.49C377.979 199.029 381.089 183.668 380.922 168.995C379.166 168.649 377.297 168.886 375.52 168.995Z"/>
	<path fill="#E0E0E0" transform="scale(2 2)" d="M147.506 172.709C151.948 143.247 160.304 120.029 182.581 98.5525C220.289 62.2001 285.23 56.8513 330.529 81.0493C334.772 83.3162 338.284 86.141 342.255 88.7782L342.428 88.8912C345.853 93.3182 348.385 99.3988 350.53 104.567C367.627 145.745 368.935 196.16 339.996 232.514C323.289 253.5 299.572 267.286 280.094 285.393C257.982 305.95 243.446 330 238.79 360.15C232.88 357.386 226.242 356.307 220.21 353.67C216.969 336.544 221.205 319.927 229.182 304.55C250.393 263.658 284.443 260.958 315.801 233.65C345.567 207.727 351.69 159.321 325.116 129.055C319.824 123.028 305.144 110.673 297.236 110.147C285.845 103.633 261.741 97.3751 249.048 103.61C238.639 88.8832 220.046 94.3383 207.622 103.171C190.366 115.439 179.285 136.662 172.671 156.505C171.109 161.192 170.222 168.82 167.699 172.649C163.22 179.446 152.769 177.509 147.506 172.709Z"/>
	<path fill="#E0E0E0" transform="scale(2 2)" d="M362.795 117.999C361.056 110.443 357.452 103.57 355.093 96.2471C370.961 118.136 377.481 132.789 380.922 159.58C379.08 159.363 377.365 159.276 375.52 159.58C374.548 152.785 368.227 120.768 362.795 117.999Z"/>
	<path fill="#E0E0E0" transform="scale(2 2)" d="M238.011 103.61C238.942 104.191 239.825 104.756 240.655 105.481C218.5 113.114 193.159 141.494 191.867 165.731C185.591 173.912 186.457 187.989 171.099 190.532C163.807 191.74 158.164 189.773 153.538 184.231C176.317 185.891 173.587 174.79 180.588 157.695C180.929 157.592 194.766 146.968 195.222 146.501C197.585 144.083 203.61 129.26 206.384 124.376C212.842 113.004 225.792 106.989 238.011 103.61Z"/>
	<path fill="white" transform="scale(2 2)" d="M198.165 135.848C193.902 136.388 194.034 132.01 197.056 130.445C200.828 130.948 200.918 134 198.165 135.848Z"/>
	<path fill="white" transform="scale(2 2)" d="M193.363 146.666C191.663 147.149 189.896 146.155 189.425 144.452C188.954 142.749 189.96 140.988 191.666 140.529C193.355 140.074 195.095 141.068 195.562 142.755C196.028 144.441 195.046 146.188 193.363 146.666Z"/>
	<path fill="#E0E0E0" transform="scale(2 2)" d="M375.52 168.995C377.297 168.886 379.166 168.649 380.922 168.995C381.089 183.668 377.979 199.029 372.112 212.49C369.258 212.015 367.552 211.15 365.725 208.893C366.822 205.842 368.832 203.241 370.051 200.241C373.944 190.655 375.52 179.272 375.52 168.995Z"/>
	<path fill="white" transform="scale(2 2)" d="M363.853 220.347C359.886 220.834 358.852 216.926 362.157 215.213C365.49 215.439 366.475 218.425 363.853 220.347Z"/>
	<path fill="#E0E0E0" transform="scale(2 2)" d="M341.515 244.354C343.513 241.754 354.301 226.412 355.093 225.71C358.653 225.755 362.178 226.24 365.725 225.71C358.316 237.986 336.756 264.856 323.73 272.161C325.322 267.7 343.126 248.124 341.515 244.354Z"/>
	<path fill="#C9C9C9" transform="scale(2 2)" d="M288.769 288.381C294.167 282.832 306.254 274.009 312.607 270.01C309.976 275.045 295.308 284.869 290.15 289.14L290.136 288.44C289.629 288.303 289.287 288.344 288.769 288.381Z"/>
	<path fill="#A8A8A8" transform="scale(2 2)" d="M279.109 297.743C281.604 294.166 285.301 290.992 288.769 288.381C289.287 288.344 289.629 288.303 290.136 288.44L290.15 289.14C287.587 291.303 281.871 296.813 279.109 297.743Z"/>
	<path fill="white" transform="scale(2 2)" d="M285.648 300.647C284.357 301.156 282.896 300.534 282.367 299.251C281.838 297.968 282.436 296.498 283.71 295.948C284.553 295.585 285.526 295.704 286.256 296.26C286.987 296.815 287.361 297.722 287.235 298.631C287.109 299.54 286.502 300.311 285.648 300.647Z"/>
	<path fill="white" transform="scale(2 2)" d="M276.86 312.681C275.808 312.926 274.705 312.581 273.98 311.78C273.255 310.979 273.02 309.848 273.368 308.825C273.716 307.802 274.59 307.047 275.654 306.854C277.243 306.565 278.773 307.597 279.101 309.179C279.428 310.761 278.434 312.315 276.86 312.681Z"/>
	<path fill="#E0E0E0" transform="scale(2 2)" d="M246.074 361.281C249.138 348.025 255.465 324.4 265.407 314.247L265.25 314.662C263.67 318.786 261.389 322.647 259.652 326.722C255.102 337.392 251.708 349.694 250.238 361.281L246.074 361.281Z"/>
	<path fill="#E0E0E0" transform="scale(2 2)" d="M270.858 322.169C272.814 318.723 273.908 316.553 277.336 314.247C273.795 322.349 270.305 332.086 266.697 339.699L266.46 339.173C265.044 341.282 265.659 344.75 263.883 346.51L263.901 347.593L263.681 347.641C263.104 347.074 263.412 345.993 263.024 345.206L261.868 346.032L261.345 345.831L261.487 346.113L261.556 346.13C260.545 344.404 264.634 338.786 263.921 336.579C264.821 333.275 267.174 329.801 268.822 326.808C270.036 325.316 270.675 324.134 270.858 322.169Z"/>
	<path fill="white" transform="scale(2 2)" d="M268.822 326.808C263.266 327.382 263.862 318.363 270.858 322.169C270.675 324.134 270.036 325.316 268.822 326.808Z"/>
	<path fill="#C9C9C9" transform="scale(2 2)" d="M263.921 336.579C264.634 338.786 260.545 344.404 261.556 346.13L261.487 346.113L261.345 345.831L261.868 346.032L263.024 345.206C263.412 345.993 263.104 347.074 263.681 347.641L263.901 347.593L263.883 346.51C265.659 344.75 265.044 341.282 266.46 339.173L266.697 339.699C264.362 346.698 262.979 353.884 262.769 361.281C261.257 361.27 259.739 361.227 258.229 361.281C258.161 352.95 261.034 344.3 263.921 336.579Z"/>
	<path fill="white" transform="scale(2 2)" d="M260.363 470.751C240.69 470.209 228.93 471.547 210.998 458.374C193.828 445.759 182.714 421.447 196.942 402.485C205.111 391.598 216.731 388.572 229.491 386.747C252.675 384.131 288.101 392.841 297.685 416.608C305.871 436.908 290.332 458.778 271.949 466.554C268.16 468.156 264.193 469.252 260.363 470.751ZM280.915 411.292C278.14 408.426 275.105 406.339 271.716 404.262C273.05 407.183 274.312 410.172 275.851 412.991C276.513 416.442 277.333 419.928 277.4 423.453C277.783 443.778 256.799 454.371 239.008 455.365C235.026 455.588 231.121 455.274 227.149 455.314C243.297 461.185 266.569 458.994 279.185 446.994C289.065 437.595 290.521 421.423 280.915 411.292ZM270.858 413.525C267.492 402.465 265.861 400.243 255.137 397.529C243.232 394.517 228.873 393.462 217.06 397.442C204.063 401.822 195.747 413.67 200.387 427.332C204.542 439.566 208.535 443.453 220.21 445.852C241.042 452.015 278.059 441.321 270.858 413.525Z"/>
	<path fill="#C9C9C9" transform="scale(2 2)" d="M275.851 412.991C277.495 412.322 279.223 411.829 280.915 411.292C290.521 421.423 289.065 437.595 279.185 446.994C266.569 458.994 243.297 461.185 227.149 455.314C231.121 455.274 235.026 455.588 239.008 455.365C256.799 454.371 277.783 443.778 277.4 423.453C277.333 419.928 276.513 416.442 275.851 412.991Z"/>
	<path fill="#E0E0E0" transform="scale(2 2)" d="M220.21 445.852C219.508 441.657 217.706 438.035 217.695 433.635C217.648 413.665 240.692 413.512 255.397 413.512L270.858 413.525C278.059 441.321 241.042 452.015 220.21 445.852Z"/>
</svg>
